:version 1.10
:name ASF
:units
  mass 1
  length 1
  angle deg
:documentation
  ASF file generated by Kaydara
:root
  axis xyz
  order  tx ty tz rx ry rz
  position 0 0 0
  orientation 0 0 0
:bonedata
  begin
    id 1
    name lfemurDummy
    direction 0.61522 -0.761478 0.204097
    length 5.68318
    axis 0 -0 0 xyz
  end
  begin
    id 2
    name lfemur
    direction 0.34202 -0.939693 -5.84747e-008
    length 16.9147
    axis 0 -0 20 xyz
    dof rx ry rz
    limits( -inf , inf )
( -inf , inf )
( -inf , inf )

  end
  begin
    id 3
    name ltibia
    direction 0.34202 -0.939693 1.20839e-009
    length 18.0532
    axis 0 -0 20 xyz
    dof rz ry rx
    limits( -inf , inf )
( -inf , inf )
( -inf , inf )

  end
  begin
    id 4
    name lfoot
    direction 0.0841971 -0.23133 0.969225
    length 5.23822
    axis -90 7.62852e-016 20 xyz
    dof ry rx rz
    limits( -inf , inf )
( -inf , inf )
( -inf , inf )

  end
  begin
    id 5
    name ltoes
    direction 0 0 0
    length 0
    axis 0 0 0 xyz
    dof rz ry rx
    limits( -inf , inf )
( -inf , inf )
( -inf , inf )

  end
  begin
    id 6
    name rfemurDummy
    direction -0.625247 -0.75382 0.202044
    length 5.74091
    axis 0 -0 0 xyz
  end
  begin
    id 7
    name rfemur
    direction -0.34202 -0.939693 -1.47013e-008
    length 16.4922
    axis 0 -0 -20 xyz
    dof rx ry rz
    limits( -inf , inf )
( -inf , inf )
( -inf , inf )

  end
  begin
    id 8
    name rtibia
    direction -0.34202 -0.939693 -7.74345e-010
    length 18.2421
    axis 0 -0 -20 xyz
    dof rz ry rx
    limits( -inf , inf )
( -inf , inf )
( -inf , inf )

  end
  begin
    id 9
    name rfoot
    direction -0.124331 -0.341598 0.931586
    length 5.45787
    axis -90 -7.62852e-016 -20 xyz
    dof ry rx rz
    limits( -inf , inf )
( -inf , inf )
( -inf , inf )

  end
  begin
    id 10
    name rtoes
    direction 0 0 0
    length 0
    axis 0 0 0 xyz
    dof rz ry rx
    limits( -inf , inf )
( -inf , inf )
( -inf , inf )

  end
  begin
    id 11
    name lowerbackDummy
    direction 0 0 0
    length 0
    axis 0 -0 0 xyz
  end
  begin
    id 12
    name lowerback
    direction -0.0218484 0.994884 -0.0986304
    length 4.45607
    axis 0 -0 0 xyz
    dof rx ry rz
    limits( -inf , inf )
( -inf , inf )
( -inf , inf )

  end
  begin
    id 13
    name upperback
    direction -0.00973057 0.999717 -0.0217111
    length 4.47449
    axis 0 -0 0 xyz
    dof rx ry rz
    limits( -inf , inf )
( -inf , inf )
( -inf , inf )

  end
  begin
    id 14
    name thorax
    direction -0.000928171 0.999699 0.0245198
    length 4.50973
    axis 0 -0 0 xyz
    dof rx ry rz
    limits( -inf , inf )
( -inf , inf )
( -inf , inf )

  end
  begin
    id 15
    name rclavicle
    direction -0.9009 0.425937 -0.0834055
    length 7.28587
    axis 0 -0 0 xyz
    dof rx ry rz
    limits( -inf , inf )
( -inf , inf )
( -inf , inf )

  end
  begin
    id 16
    name rhumerus
    direction -1 -2.23604e-007 -1.42637e-007
    length 13.5704
    axis 180 30 90 xyz
    dof rx ry rz
    limits( -inf , inf )
( -inf , inf )
( -inf , inf )

  end
  begin
    id 17
    name rradius
    direction -1 5.68281e-008 -4.4952e-007
    length 8.06782
    axis 180 30 90 xyz
    dof rz ry rx
    limits( -inf , inf )
( -inf , inf )
( -inf , inf )

  end
  begin
    id 18
    name rwrist
    direction -1 1.51393e-007 1.38143e-007
    length 4.03391
    axis -90 -90 0 xyz
    dof rz rx ry
    limits( -inf , inf )
( -inf , inf )
( -inf , inf )

  end
  begin
    id 19
    name rthumb
    direction 0 0 0
    length 0
    axis 0 0 0 xyz
    dof ry rx rz
    limits( -inf , inf )
( -inf , inf )
( -inf , inf )

  end
  begin
    id 20
    name rhand
    direction -1 -3.34077e-007 -5.59631e-007
    length 1.29744
    axis -90 -90 0 xyz
    dof ry rx rz
    limits( -inf , inf )
( -inf , inf )
( -inf , inf )

  end
  begin
    id 21
    name rfingers
    direction 0 0 0
    length 0
    axis 0 0 0 xyz
    dof rz ry rx
    limits( -inf , inf )
( -inf , inf )
( -inf , inf )

  end
  begin
    id 22
    name lclavicle
    direction 0.940017 0.332249 -0.0773232
    length 8.29589
    axis 0 -0 0 xyz
    dof rx ry rz
    limits( -inf , inf )
( -inf , inf )
( -inf , inf )

  end
  begin
    id 23
    name lhumerus
    direction 1 7.41158e-008 -1.44768e-008
    length 12.0042
    axis 180 -30 -90 xyz
    dof rx ry rz
    limits( -inf , inf )
( -inf , inf )
( -inf , inf )

  end
  begin
    id 24
    name lradius
    direction 1 -1.32972e-007 3.10821e-007
    length 8.1902
    axis 180 -30 -90 xyz
    dof rz ry rx
    limits( -inf , inf )
( -inf , inf )
( -inf , inf )

  end
  begin
    id 25
    name lwrist
    direction 1 3.08957e-007 4.01394e-007
    length 4.09509
    axis -90 90 0 xyz
    dof rz rx ry
    limits( -inf , inf )
( -inf , inf )
( -inf , inf )

  end
  begin
    id 26
    name lthumb
    direction 0 0 0
    length 0
    axis 0 0 0 xyz
    dof ry rx rz
    limits( -inf , inf )
( -inf , inf )
( -inf , inf )

  end
  begin
    id 27
    name lhand
    direction 1 -1.64125e-007 -6.99514e-007
    length 1.37229
    axis -90 90 0 xyz
    dof ry rx rz
    limits( -inf , inf )
( -inf , inf )
( -inf , inf )

  end
  begin
    id 28
    name lfingers
    direction 0 0 0
    length 0
    axis 0 0 0 xyz
    dof rz ry rx
    limits( -inf , inf )
( -inf , inf )
( -inf , inf )

  end
  begin
    id 29
    name lowerneck
    direction -0.030798 0.998024 0.0547665
    length 3.93918
    axis 0 -0 0 xyz
    dof rx ry rz
    limits( -inf , inf )
( -inf , inf )
( -inf , inf )

  end
  begin
    id 30
    name upperneck
    direction 0.0531588 0.996611 -0.0627736
    length 3.95491
    axis 0 -0 0 xyz
    dof rx ry rz
    limits( -inf , inf )
( -inf , inf )
( -inf , inf )

  end
  begin
    id 31
    name head
    direction 0 0 0
    length 0
    axis 0 0 0 xyz
    dof rx ry rz
    limits( -inf , inf )
( -inf , inf )
( -inf , inf )

  end
:hierarchy
  begin
    root lfemurDummy rfemurDummy lowerbackDummy
    lfemurDummy lfemur
    lfemur ltibia
    ltibia lfoot
    lfoot ltoes
    rfemurDummy rfemur
    rfemur rtibia
    rtibia rfoot
    rfoot rtoes
    lowerbackDummy lowerback
    lowerback upperback
    upperback thorax
    thorax rclavicle lclavicle lowerneck
    rclavicle rhumerus
    rhumerus rradius
    rradius rwrist
    rwrist rthumb rhand
    rhand rfingers
    lclavicle lhumerus
    lhumerus lradius
    lradius lwrist
    lwrist lthumb lhand
    lhand lfingers
    lowerneck upperneck
    upperneck head
  end

:SAMPLES-PER-SECOND 30
:FULLY-SPECIFIED
:DEGREES
101
root  6.459510983 40.8100008 4.532377739 -18.690979 -68.23899841 20.46002197
lowerback  14.53030014 5.837180138 1.201349974
upperback  3.386339903 7.77628994 -0.04831049964
thorax  -4.330570221 3.780590057 -2.098880053
lowerneck  -7.777959824 10.5958004 -0.5374739766
upperneck  12.60620022 14.72430038 -2.641760111
head  5.235479832 6.99187994 0.274567008
lclavicle  0 -9.442270133e-015 7.951389973e-016
lhumerus  -28.11310005 -13.96179962 82.19650269
lradius  2.972078726e-031 -1.906722865e-031 147.3179932
lwrist  -7.062250077e-031 -0 -2.600860119
lhand  -1.496451383e-031 -27.76390076 20.11240005
lfingers  90 7.125020027 -90
lthumb  89.89689403 5.08795885 91.16245106
rclavicle  0 -9.442270133e-015 7.951389973e-016
rhumerus  3.758960009 31.64459991 -78.63269806
rradius  -2.44964267e-031 2.54324494e-031 133.9259949
rwrist  1.412450015e-030 -0 -9.856209755
rhand  -7.920061211e-032 -33.2840004 9.303460121
rfingers  -90 -7.125020027 -90
rthumb  -92.93752616 -24.25625642 -97.11982154
rfemur  -17.61540031 12.5649004 -3.757879972
rtibia  -0 0 50.53739929
rfoot  -4.459087629e-032 -8.163220406 -0.5431789756
rtoes  5.373923086 19.29304026 -105.8922705
lfemur  -23.96990013 7.949150085 -10.28129959
ltibia  -0 0 58.2602005
lfoot  5.521100842e-032 2.10281992 -1.034579992
ltoes  -4.250644065 -19.5611806 -102.515957
102
root  6.544644814 40.82911033 4.716866786 -20.36602783 -69.0510025 22.28601074
lowerback  14.52589989 5.909389973 1.005319953
upperback  3.503070116 7.826749802 -0.2166460007
thorax  -4.2051301 3.80824995 -2.165960073
lowerneck  -7.450769901 10.63980007 -0.03927220032
upperneck  12.52649975 14.73750019 -2.839020014
head  5.208010197 7.014490128 0.1258479953
lclavicle  0 -9.442270133e-015 7.951389973e-016
lhumerus  -29.15979958 -13.77719975 80.8105011
lradius  2.965538773e-031 -1.916878666e-031 147.121994
lwrist  -1.765562519e-030 -0 -0.6016479731
lhand  -1.496451383e-031 -27.76390076 20.11240005
lfingers  90 7.125020027 -90
lthumb  89.89689403 5.08795885 91.16245106
rclavicle  0 -9.442270133e-015 7.951389973e-016
rhumerus  3.030849934 31.01989937 -78.34529877
rradius  -2.438255076e-031 2.554164486e-031 133.6699982
rwrist  7.062250077e-031 -3.531125038e-031 -10.30580044
rhand  -7.920061211e-032 -33.2840004 9.303460121
rfingers  -90 -7.125020027 -90
rthumb  -92.93752616 -24.25625642 -97.11982154
rfemur  -18.63030052 12.84469986 -4.533370018
rtibia  -0 0 51.21450043
rfoot  -4.465482531e-032 -8.716600418 -3.296430111
rtoes  5.373923086 19.29304026 -105.8922705
lfemur  -23.35269928 7.076179981 -10.12819958
ltibia  -0 0 57.01580048
lfoot  5.51764508e-032 0.5585799813 1.291399956
ltoes  -4.250644065 -19.5611806 -102.515957
103
root  6.621978039 40.81310963 4.897111232 -22.01397705 -69.78700256 24.10198975
lowerback  14.46020031 6.002250195 0.7390819788
upperback  3.637300014 7.895170212 -0.3665530086
thorax  -4.039800167 3.845829964 -2.170650005
lowerneck  -7.486470222 10.66079998 0.379516989
upperneck  12.71380043 14.73330021 -2.914410114
head  5.308650017 7.019450188 0.05350720137
lclavicle  0 -9.442270133e-015 7.951389973e-016
lhumerus  -30.28779984 -14.15130043 79.43969727
lradius  2.958224387e-031 -1.928147431e-031 146.904007
lwrist  0 -3.531125038e-031 0.6807060242
lhand  -1.496451383e-031 -27.76390076 20.11240005
lfingers  90 7.125020027 -90
lthumb  89.89689403 5.08795885 91.16245106
rclavicle  0 -9.442270133e-015 7.951389973e-016
rhumerus  2.52944994 30.42980003 -78.05110168
rradius  -2.414075011e-031 2.577030438e-031 133.1300049
rwrist  7.062250077e-031 -1.765562519e-031 -10.64369965
rhand  -7.920061211e-032 -33.2840004 9.303460121
rfingers  -90 -7.125020027 -90
rthumb  -92.93752616 -24.25625642 -97.11982154
rfemur  -19.60890007 13.16810036 -5.253439903
rtibia  -0 0 51.8423996
rfoot  -4.47614028e-032 -9.565420151 -5.49684
rtoes  5.373923086 19.29304026 -105.8922705
lfemur  -22.75429916 6.228929996 -9.944939613
ltibia  -0 0 55.79859924
lfoot  4.414378747e-032 -0.8382700086 3.800420046
ltoes  -4.250644065 -19.5611806 -102.515957
104
root  6.679755684 40.76733326 5.062777602 -23.9630127 -70.47799683 26.11102295
lowerback  14.4691 6.11619997 0.2625499964
upperback  3.731709957 7.96818018 -0.4023709893
thorax  -4.002059937 3.883510113 -1.956560016
lowerneck  -7.398389816 10.72889996 0.4232609868
upperneck  12.93980026 14.8185997 -2.852479935
head  5.364319801 7.061729908 0.07421240211
lclavicle  0 -9.442270133e-015 7.951389973e-016
lhumerus  -31.8321991 -14.74849987 78.26110077
lradius  2.952152077e-031 -1.937431845e-031 146.723999
lwrist  -1.059337512e-030 -3.531125038e-031 1.276790023
lhand  -1.496451383e-031 -27.76390076 20.11240005
lfingers  90 7.125020027 -90
lthumb  89.89689403 5.08795885 91.16245106
rclavicle  0 -9.442270133e-015 7.951389973e-016
rhumerus  1.755890012 30.00250053 -77.77799988
rradius  -2.391585179e-031 2.597915389e-031 132.6320038
rwrist  7.062250077e-031 -0 -10.53139973
rhand  -7.920061211e-032 -33.2840004 9.303460121
rfingers  -90 -7.125020027 -90
rthumb  -92.93752616 -24.25625642 -97.11982154
rfemur  -20.39550018 13.70590019 -5.943600178
rtibia  -0 0 52.32009888
rfoot  -8.967942397e-032 -10.1420002 -6.536580086
rtoes  5.373923086 19.29304026 -105.8922705
lfemur  -21.97240067 5.55136013 -9.743200302
ltibia  -0 0 54.59579849
lfoot  4.416340469e-032 -1.902400017 6.091209888
ltoes  -4.250644065 -19.5611806 -102.515957
105
root  6.721021998 40.70266664 5.218622253 -26.16497803 -71.16000366 28.19299316
lowerback  14.63630009 6.198729992 -0.2116540074
upperback  3.831310034 7.996150017 -0.4436739981
thorax  -4.044579983 3.895950079 -1.759909987
lowerneck  -7.289889812 10.82919979 0.4706969857
upperneck  13.0625 14.96899986 -2.976229906
head  5.400730133 7.126259804 0.04017439857
lclavicle  0 -9.442270133e-015 7.951389973e-016
lhumerus  -33.42559814 -15.38640022 76.78019714
lradius  2.944147076e-031 -1.949574833e-031 146.4880066
lwrist  -1.059337512e-030 -0 1.834280014
lhand  -1.496451383e-031 -27.76390076 20.11240005
lfingers  90 7.125020027 -90
lthumb  89.89689403 5.08795885 91.16245106
rclavicle  0 -9.442270133e-015 7.951389973e-016
rhumerus  0.7605479956 29.77669907 -77.56880188
rradius  -2.365393572e-031 2.621785134e-031 132.0570068
rwrist  1.412450015e-030 1.765562519e-031 -9.61727047
rhand  -7.920061211e-032 -33.2840004 9.303460121
rfingers  -90 -7.125020027 -90
rthumb  -92.93752616 -24.25625642 -97.11982154
rfemur  -20.88430023 14.51340008 -6.495230198
rtibia  -0 0 52.55670166
rfoot  -0 -10.31379986 -6.608689785
rtoes  5.373923086 19.29304026 -105.8922705
lfemur  -20.96080017 5.031459808 -9.487660408
ltibia  -0 0 53.40380096
lfoot  -0 -2.564199924 8.046429634
ltoes  -4.250644065 -19.5611806 -102.515957
106
root  6.750288535 40.61199999 5.37222239 -29.00402832 -71.8239975 30.75201416
lowerback  14.89420033 6.304890156 -0.737604022
upperback  4.008140087 8.034689903 -0.5816149712
thorax  -4.046780109 3.91218996 -1.641720057
lowerneck  -7.307330132 10.92010021 0.7547709942
upperneck  13.15030003 15.11279964 -3.334140062
head  5.484119892 7.18091011 -0.08911009878
lclavicle  0 -9.442270133e-015 7.951389973e-016
lhumerus  -34.84880066 -16.0916996 74.77880096
lradius  2.936023167e-031 -1.96178796e-031 146.25
lwrist  -1.412450015e-030 -0 2.694780111
lhand  -1.496451383e-031 -27.76390076 20.11240005
lfingers  90 7.125020027 -90
lthumb  89.89689403 5.08795885 91.16245106
rclavicle  0 -9.442270133e-015 7.951389973e-016
rhumerus  -0.2444760054 29.50670052 -77.48370361
rradius  -2.334759094e-031 2.649102492e-031 131.3910065
rwrist  1.412450015e-030 -1.765562519e-031 -8.686969757
rhand  -7.920061211e-032 -33.2840004 9.303460121
rfingers  -90 -7.125020027 -90
rthumb  -92.93752616 -24.25625642 -97.11982154
rfemur  -21.10630035 15.69099998 -7.102700233
rtibia  -0 0 52.51309967
rfoot  -4.481220499e-032 -9.943470001 -6.021999836
rtoes  5.373923086 19.29304026 -105.8922705
lfemur  -19.68309975 4.566090107 -9.333169937
ltibia  -0 0 52.24670029
lfoot  -0 -3.153100014 9.632399559
ltoes  -4.250644065 -19.5611806 -102.515957
107
root  6.775666785 40.48088855 5.528266787 -31.38500977 -72.29100037 32.94500732
lowerback  14.96850014 6.34528017 -1.198959947
upperback  4.130670071 8.003339767 -0.6985089779
thorax  -4.002989769 3.895529985 -1.507150054
lowerneck  -7.194059849 11.03509998 0.8790100217
upperneck  13.12549973 15.28829956 -3.59849
head  5.492390156 7.255970001 -0.178027004
lclavicle  0 -9.442270133e-015 7.951389973e-016
lhumerus  -36.44290161 -16.75959969 72.5503006
lradius  2.931976793e-031 -1.967830308e-031 146.1320038
lwrist  -7.062250077e-031 -0 3.155920029
lhand  -1.496451383e-031 -27.76390076 20.11240005
lfingers  90 7.125020027 -90
lthumb  89.89689403 5.08795885 91.16245106
rclavicle  0 -9.442270133e-015 7.951389973e-016
rhumerus  -1.237310052 29.13949966 -77.52050018
rradius  -2.309594984e-031 2.67107002e-031 130.848999
rwrist  7.062250077e-031 -0 -8.721969604
rhand  -7.920061211e-032 -33.2840004 9.303460121
rfingers  -90 -7.125020027 -90
rthumb  -92.93752616 -24.25625642 -97.11982154
rfemur  -21.28779984 16.98460007 -7.68448019
rtibia  -0 0 52.29449844
rfoot  -4.474027592e-032 -9.403510094 -5.096039772
rtoes  5.373923086 19.29304026 -105.8922705
lfemur  -18.60140038 3.981209993 -9.098899841
ltibia  -0 0 51.17110062
lfoot  -0 -3.742609978 10.65509987
ltoes  -4.250644065 -19.5611806 -102.515957
108
root  6.798822298 40.30244482 5.681644274 -32.36401367 -72.60900116 33.98699951
lowerback  14.76239967 6.229690075 -1.476999998
upperback  4.095610142 7.813340187 -0.7606419921
thorax  -3.959589958 3.804160118 -1.365790009
lowerneck  -7.11191988 11.2446003 0.9685530066
upperneck  13.16090012 15.59609985 -3.836080074
head  5.523890018 7.393300056 -0.239842996
lclavicle  0 -9.442270133e-015 7.951389973e-016
lhumerus  -38.29100037 -17.19510078 70.06060028
lradius  2.930774041e-031 -1.969621171e-031 146.0970001
lwrist  -7.062250077e-031 -3.531125038e-031 2.3308599
lhand  -1.496451383e-031 -27.76390076 20.11240005
lfingers  90 7.125020027 -90
lthumb  89.89689403 5.08795885 91.16245106
rclavicle  0 -9.442270133e-015 7.951389973e-016
rhumerus  -2.468460083 28.7133007 -77.46730042
rradius  -2.304555955e-031 2.675418824e-031 130.7409973
rwrist  7.062250077e-031 -1.765562519e-031 -9.654129982
rhand  -7.920061211e-032 -33.2840004 9.303460121
rfingers  -90 -7.125020027 -90
rthumb  -92.93752616 -24.25625642 -97.11982154
rfemur  -21.55410004 18.17210007 -8.019869804
rtibia  -0 0 52.08169937
rfoot  -4.479936804e-032 -9.849379539 -4.096789837
rtoes  5.373923086 19.29304026 -105.8922705
lfemur  -18.02669907 3.327950001 -8.554550171
ltibia  -0 0 50.2215004
lfoot  -0 -3.758529902 10.98040009
ltoes  -4.250644065 -19.5611806 -102.515957
